<?xml version="1.0" encoding="UTF-8" standalone="no"?>
<svg
   width="24"
   height="24"
   fill="currentColor"
   viewBox="1.60 1.60 6.80 6.80"
   version="1.1"
   id="svg1"
   sodipodi:docname="info-02.svg"
   inkscape:version="1.4.4 (dcaf3e7d9e, 2026-05-05)"
   xmlns:inkscape="http://www.inkscape.org/namespaces/inkscape"
   xmlns:sodipodi="http://sodipodi.sourceforge.net/DTD/sodipodi-0.dtd"
   xmlns="http://www.w3.org/2000/svg"
   xmlns:svg="http://www.w3.org/2000/svg">
  <defs
     id="defs1" />
  <sodipodi:namedview
     id="namedview1"
     pagecolor="#ffffff"
     bordercolor="#000000"
     borderopacity="0.25"
     inkscape:showpageshadow="2"
     inkscape:pageopacity="0.0"
     inkscape:pagecheckerboard="0"
     inkscape:deskcolor="#d1d1d1"
     inkscape:zoom="35.416667"
     inkscape:cx="11.985882"
     inkscape:cy="12"
     inkscape:window-width="1886"
     inkscape:window-height="1052"
     inkscape:window-x="34"
     inkscape:window-y="0"
     inkscape:window-maximized="1"
     inkscape:current-layer="svg1" />
  <path
     d="M5 1.6A3.4 3.4 0 1 1 5 8.4 3.4 3.4 0 0 1 5 1.6m-.55 2.658a.451.451 0 0 0-.25.826l.052.034c.13.088.209.235.209.392v.64a.35.35 0 0 1-.153.288l-.108.07a.451.451 0 0 0 .25.827h1.1a.451.451 0 0 0 .25-.826l-.108-.071a.35.35 0 0 1-.153-.289v-.802c0-.458 0-.688-.118-.847a.6.6 0 0 0-.123-.123c-.16-.119-.39-.12-.848-.12m.473-1.808a.616.616 0 1 0 0 1.232.616.616 0 0 0 0-1.232"
     id="path1"
     style="fill:#ffffff;fill-opacity:1" />
</svg>
